<?xml version="1.0" encoding="UTF-8" standalone="no"?>
<svg xmlns="http://www.w3.org/2000/svg"
     xmlns:xlink="http://www.w3.org/1999/xlink"
     width="1209px" height="806px" viewBox="0 0 1209 806">
<title>ParaView GL2PS Export</title>
<desc>
Creator: GL2PS 1.3.8, (C) 1999-2012 C. Geuzaine
For: VTK
CreationDate: Fri Jul 23 12:55:54 2021
</desc>
<defs>
</defs>
<polygon fill="#ffffff" points="0,0 1209,0 1209,806 0,806"/>
<g shape-rendering="crispEdges">
<polygon fill="#ffffff" points="624,108 658,108 624,121"/>
<polygon fill="#ffffff" points="658,108 658,121 624,121"/>
<polygon fill="#ffffff" points="843,242 875,242 843,255"/>
<polygon fill="#ffffff" points="875,242 875,255 843,255"/>
<polygon fill="#ffffff" points="280,340 312,340 280,353"/>
<polygon fill="#ffffff" points="312,340 312,353 280,353"/>
<polygon fill="#ffffff" points="381,139 414,139 381,152"/>
<polygon fill="#ffffff" points="414,139 414,152 381,152"/>
<polygon fill="#ffffff" points="815,402 848,402 815,415"/>
<polygon fill="#ffffff" points="848,402 848,415 815,415"/>
<polygon fill="#ffffff" points="498,477 532,477 498,490"/>
<polygon fill="#ffffff" points="532,477 532,490 498,490"/>
<polyline fill="none" stroke="#000000" stroke-width="0,714" points="495,796,362,128 475,985,158,192 495,796,362,128"/>
<polyline fill="none" stroke="#000000" stroke-width="0,714" points="475,985,158,192 495,796,362,128 475,985,158,192"/>
<polyline fill="none" stroke="#000000" stroke-width="0,714" points="539,182,154,779 557,159,361,458"/>
<polyline fill="none" stroke="#000000" stroke-width="0,714" points="476,542,163,927 475,427,152,446"/>
<polyline fill="none" stroke="#000000" stroke-width="0,714" points="476,542,163,927 475,427,152,446"/>
<polyline fill="none" stroke="#000000" stroke-width="0,714" points="819,298,358,595 495,796,362,128 819,298,358,595"/>
<polyline fill="none" stroke="#000000" stroke-width="0,714" points="495,796,362,128 819,298,358,595 495,796,362,128"/>
<polyline fill="none" stroke="#000000" stroke-width="0,714" points="492,712,330,386 817,819,324,663"/>
<polyline fill="none" stroke="#000000" stroke-width="0,714" points="604,087,151,273 620,125,360,77"/>
<polyline fill="none" stroke="#000000" stroke-width="0,714" points="489,596,298,309 816,323,290,348"/>
<polyline fill="none" stroke="#000000" stroke-width="0,714" points="539,687,160,593 538,675,148,953"/>
<polyline fill="none" stroke="#000000" stroke-width="0,714" points="486,447,265,891 814,81,255,644"/>
<polyline fill="none" stroke="#000000" stroke-width="0,714" points="483,264,233,128 813,28,220,543"/>
<polyline fill="none" stroke="#000000" stroke-width="0,714" points="670,771,147,672 684,759,360,064"/>
<polyline fill="none" stroke="#000000" stroke-width="0,714" points="604,539,157,17 603,635,145,366"/>
<polyline fill="none" stroke="#000000" stroke-width="0,714" points="480,047,200,012 811,732,185,04"/>
<polyline fill="none" stroke="#000000" stroke-width="0,714" points="813,43,358,659 825,18,358,53"/>
<polyline fill="none" stroke="#000000" stroke-width="0,714" points="813,43,358,659 825,18,358,53"/>
<polyline fill="none" stroke="#000000" stroke-width="0,714" points="476,796,166,54 810,167,149,127"/>
<polyline fill="none" stroke="#000000" stroke-width="0,714" points="475,985,158,192 809,776,140,165"/>
<polyline fill="none" stroke="#000000" stroke-width="0,714" points="739,308,143,971 751,126,359,339"/>
<polyline fill="none" stroke="#000000" stroke-width="0,714" points="811,92,324,767 823,732,324,559"/>
<polyline fill="none" stroke="#000000" stroke-width="0,714" points="671,165,153,653 670,377,141,68"/>
<polyline fill="none" stroke="#000000" stroke-width="0,714" points="810,392,290,492 822,268,290,203"/>
<polyline fill="none" stroke="#000000" stroke-width="0,714" points="808,848,255,83 820,787,255,457"/>
<polyline fill="none" stroke="#000000" stroke-width="0,714" points="809,776,140,165 819,298,358,595"/>
<polyline fill="none" stroke="#000000" stroke-width="0,714" points="809,776,140,165 819,298,358,595"/>
<polyline fill="none" stroke="#000000" stroke-width="0,714" points="739,641,150,038 738,975,137,892"/>
<polyline fill="none" stroke="#000000" stroke-width="0,714" points="807,285,220,772 819,289,220,314"/>
<polyline fill="none" stroke="#000000" stroke-width="0,714" points="805,705,185,312 817,774,184,767"/>
<polyline fill="none" stroke="#000000" stroke-width="0,714" points="804,106,149,443 816,241,148,809"/>
<polyline fill="none" stroke="#000000" stroke-width="0,714" points="810,044,146,322 809,507,133,997"/>
<polyline fill="none" stroke="#000000" stroke-width="0,714" points="495,796,362,128 353,323,454,926 495,796,362,128"/>
<polyline fill="none" stroke="#000000" stroke-width="0,714" points="353,323,454,926 495,796,362,128 353,323,454,926"/>
<polyline fill="none" stroke="#000000" stroke-width="0,714" points="348,532,415,842 492,712,330,386"/>
<polyline fill="none" stroke="#000000" stroke-width="0,714" points="432,442,403,393 407,974,177,592"/>
<polyline fill="none" stroke="#000000" stroke-width="0,714" points="343,677,376,241 489,596,298,309"/>
<polyline fill="none" stroke="#000000" stroke-width="0,714" points="557,159,361,458 427,902,455,585"/>
<polyline fill="none" stroke="#000000" stroke-width="0,714" points="338,757,336,114 486,447,265,891"/>
<polyline fill="none" stroke="#000000" stroke-width="0,714" points="333,772,295,449 483,264,233,128"/>
<polyline fill="none" stroke="#000000" stroke-width="0,714" points="408,664,183,964 407,282,171,206"/>
<polyline fill="none" stroke="#000000" stroke-width="0,714" points="789,647,402,577 432,442,403,393"/>
<polyline fill="none" stroke="#000000" stroke-width="0,714" points="620,125,360,77 504,93,456,266"/>
<polyline fill="none" stroke="#000000" stroke-width="0,714" points="328,719,254,235 480,047,200,012"/>
<polyline fill="none" stroke="#000000" stroke-width="0,714" points="323,598,212,461 476,796,166,54"/>
<polyline fill="none" stroke="#000000" stroke-width="0,714" points="322,318,202,025 475,985,158,192"/>
<polyline fill="none" stroke="#000000" stroke-width="0,714" points="684,759,360,064 584,53,456,97"/>
<polyline fill="none" stroke="#000000" stroke-width="0,714" points="751,126,359,339 666,834,457,698"/>
<polyline fill="none" stroke="#000000" stroke-width="0,714" points="783,12,402,592 796,192,402,563"/>
<polyline fill="none" stroke="#000000" stroke-width="0,714" points="819,298,358,595 751,98,458,451"/>
<polyline fill="none" stroke="#000000" stroke-width="0,714" points="819,298,358,595 751,98,458,451"/>
<polyline fill="none" stroke="#000000" stroke-width="0,714" points="356,336,452,963 350,285,456,905"/>
<polyline fill="none" stroke="#000000" stroke-width="0,714" points="356,337,452,963 350,284,456,905"/>
<polyline fill="none" stroke="#000000" stroke-width="0,714" points="351,585,414,032 345,453,417,667"/>
<polyline fill="none" stroke="#000000" stroke-width="0,714" points="346,771,374,589 340,556,377,908"/>
<polyline fill="none" stroke="#000000" stroke-width="0,714" points="430,645,453,588 425,136,457,6"/>
<polyline fill="none" stroke="#000000" stroke-width="0,714" points="341,893,334,623 335,595,337,618"/>
<polyline fill="none" stroke="#000000" stroke-width="0,714" points="353,323,454,926 322,318,202,025"/>
<polyline fill="none" stroke="#000000" stroke-width="0,714" points="353,323,454,926 322,318,202,025"/>
<polyline fill="none" stroke="#000000" stroke-width="0,714" points="336,95,294,124 330,566,296,785"/>
<polyline fill="none" stroke="#000000" stroke-width="0,714" points="507,382,454,234 502,457,458,317"/>
<polyline fill="none" stroke="#000000" stroke-width="0,714" points="331,94,253,081 325,47,255,399"/>
<polyline fill="none" stroke="#000000" stroke-width="0,714" points="326,863,211,483 320,303,213,449"/>
<polyline fill="none" stroke="#000000" stroke-width="0,714" points="323,197,209,195 321,437,194,838"/>
<polyline fill="none" stroke="#000000" stroke-width="0,714" points="751,98,458,451 353,323,454,926"/>
<polyline fill="none" stroke="#000000" stroke-width="0,714" points="751,98,458,451 353,323,454,926"/>
<polyline fill="none" stroke="#000000" stroke-width="0,714" points="586,671,454,901 582,371,459,058"/>
<polyline fill="none" stroke="#000000" stroke-width="0,714" points="668,64,455,59 665,011,459,825"/>
<polyline fill="none" stroke="#000000" stroke-width="0,714" points="744,627,458,386 759,355,458,516"/>
<polyline fill="none" stroke="#000000" stroke-width="0,714" points="753,428,456,303 750,519,460,618"/>
<text fill="#000000" x="476" y="150" font-size="12" text-anchor="middle" baseline-shift="0" font-family="Helvetica">0</text>
<text fill="#000000" x="539" y="147" font-size="12" text-anchor="middle" baseline-shift="0" font-family="Helvetica">0.2</text>
<text fill="#000000" x="604" y="143" font-size="12" text-anchor="middle" baseline-shift="0" font-family="Helvetica">0.4</text>
<text fill="#000000" x="670" y="140" font-size="12" text-anchor="middle" baseline-shift="0" font-family="Helvetica">0.6</text>
<text fill="#000000" x="738" y="136" font-size="12" text-anchor="middle" baseline-shift="0" font-family="Helvetica">0.8</text>
<text fill="#000000" x="809" y="132" font-size="12" text-anchor="middle" baseline-shift="0" font-family="Helvetica">1</text>
<text fill="#000000" x="640,5" y="121" font-size="12" text-anchor="middle" baseline-shift="0" font-family="Helvetica">Y Axis</text>
<text fill="#000000" x="827" y="359" font-size="12" text-anchor="start" baseline-shift="-6" font-family="Helvetica">0</text>
<text fill="#000000" x="826" y="325" font-size="12" text-anchor="start" baseline-shift="-6" font-family="Helvetica">0.1</text>
<text fill="#000000" x="824" y="291" font-size="12" text-anchor="start" baseline-shift="-6" font-family="Helvetica">0.2</text>
<text fill="#000000" x="823" y="257" font-size="12" text-anchor="start" baseline-shift="-6" font-family="Helvetica">0.3</text>
<text fill="#000000" x="821" y="222" font-size="12" text-anchor="start" baseline-shift="-6" font-family="Helvetica">0.4</text>
<text fill="#000000" x="820" y="186" font-size="12" text-anchor="start" baseline-shift="-6" font-family="Helvetica">0.5</text>
<text fill="#000000" x="818" y="150" font-size="12" text-anchor="start" baseline-shift="-6" font-family="Helvetica">0.6</text>
<text fill="#000000" x="842,5" y="249" font-size="12" text-anchor="start" baseline-shift="-6" font-family="Helvetica">Z Axis</text>
<text fill="#000000" x="344" y="459" font-size="12" text-anchor="end" baseline-shift="-12" font-family="Helvetica">0</text>
<text fill="#000000" x="340" y="420" font-size="12" text-anchor="end" baseline-shift="-12" font-family="Helvetica">0.1</text>
<text fill="#000000" x="335" y="381" font-size="12" text-anchor="end" baseline-shift="-12" font-family="Helvetica">0.2</text>
<text fill="#000000" x="330" y="341" font-size="12" text-anchor="end" baseline-shift="-12" font-family="Helvetica">0.3</text>
<text fill="#000000" x="325" y="300" font-size="12" text-anchor="end" baseline-shift="-12" font-family="Helvetica">0.4</text>
<text fill="#000000" x="320" y="259" font-size="12" text-anchor="end" baseline-shift="-12" font-family="Helvetica">0.5</text>
<text fill="#000000" x="315" y="218" font-size="12" text-anchor="end" baseline-shift="-12" font-family="Helvetica">0.6</text>
<text fill="#000000" x="311" y="341" font-size="12" text-anchor="end" baseline-shift="-12" font-family="Helvetica">Z Axis</text>
<text fill="#000000" x="475" y="150" font-size="12" text-anchor="middle" baseline-shift="0" font-family="Helvetica">0</text>
<text fill="#000000" x="407" y="170" font-size="12" text-anchor="middle" baseline-shift="0" font-family="Helvetica">0.5</text>
<text fill="#000000" x="322" y="194" font-size="12" text-anchor="middle" baseline-shift="0" font-family="Helvetica">1</text>
<text fill="#000000" x="396,5" y="152" font-size="12" text-anchor="middle" baseline-shift="0" font-family="Helvetica">X Axis</text>
<text fill="#000000" x="828" y="359" font-size="12" text-anchor="start" baseline-shift="-6" font-family="Helvetica">0</text>
<text fill="#000000" x="799" y="403" font-size="12" text-anchor="start" baseline-shift="-6" font-family="Helvetica">0.5</text>
<text fill="#000000" x="761" y="459" font-size="12" text-anchor="start" baseline-shift="-6" font-family="Helvetica">1</text>
<text fill="#000000" x="814,5" y="409" font-size="12" text-anchor="start" baseline-shift="-6" font-family="Helvetica">X Axis</text>
<text fill="#000000" x="346" y="462" font-size="12" text-anchor="end" baseline-shift="-12" font-family="Helvetica">0</text>
<text fill="#000000" x="421" y="463" font-size="12" text-anchor="end" baseline-shift="-12" font-family="Helvetica">0.2</text>
<text fill="#000000" x="498" y="464" font-size="12" text-anchor="end" baseline-shift="-12" font-family="Helvetica">0.4</text>
<text fill="#000000" x="577" y="464" font-size="12" text-anchor="end" baseline-shift="-12" font-family="Helvetica">0.6</text>
<text fill="#000000" x="659" y="465" font-size="12" text-anchor="end" baseline-shift="-12" font-family="Helvetica">0.8</text>
<text fill="#000000" x="744" y="466" font-size="12" text-anchor="end" baseline-shift="-12" font-family="Helvetica">1</text>
<text fill="#000000" x="531" y="478" font-size="12" text-anchor="end" baseline-shift="-12" font-family="Helvetica">Y Axis</text>
<text fill="#000000" x="920,8" y="366,25" font-size="19" text-anchor="start" baseline-shift="0" font-family="Helvetica">0,015619</text>
<text fill="#000000" x="920,8" y="289,25" font-size="19" text-anchor="start" baseline-shift="0" font-family="Helvetica">0,031239</text>
<text fill="#000000" x="920,8" y="212,25" font-size="19" text-anchor="start" baseline-shift="0" font-family="Helvetica">0,046858</text>
<text fill="#000000" x="920,8" y="443,25" font-size="19" text-anchor="start" baseline-shift="0" font-family="Helvetica">0,000e+00</text>
<text fill="#000000" x="920,8" y="135,25" font-size="19" text-anchor="start" baseline-shift="0" font-family="Helvetica">6,248e-02</text>
<text fill="#000000" x="901,8" y="111,75" font-size="19" text-anchor="middle" baseline-shift="0" font-family="Helvetica">f_5588</text>
<polyline fill="none" stroke="#333333" stroke-width="0,714" points="909,434 919,434"/>
<polyline fill="none" stroke="#333333" stroke-width="0,714" points="909,426,3 919,426,3"/>
<polyline fill="none" stroke="#333333" stroke-width="0,714" points="909,418,6 919,418,6"/>
<polyline fill="none" stroke="#333333" stroke-width="0,714" points="909,410,9 919,410,9"/>
<polyline fill="none" stroke="#333333" stroke-width="0,714" points="909,403,2 919,403,2"/>
<polyline fill="none" stroke="#333333" stroke-width="0,714" points="909,395,5 919,395,5"/>
<polyline fill="none" stroke="#333333" stroke-width="0,714" points="909,387,8 919,387,8"/>
<polyline fill="none" stroke="#333333" stroke-width="0,714" points="909,380,1 919,380,1"/>
<polyline fill="none" stroke="#333333" stroke-width="0,714" points="909,372,4 919,372,4"/>
<polyline fill="none" stroke="#333333" stroke-width="0,714" points="909,364,7 919,364,7"/>
<polyline fill="none" stroke="#333333" stroke-width="0,714" points="909,357 919,357"/>
<polyline fill="none" stroke="#333333" stroke-width="0,714" points="909,349,3 919,349,3"/>
<polyline fill="none" stroke="#333333" stroke-width="0,714" points="909,341,6 919,341,6"/>
<polyline fill="none" stroke="#333333" stroke-width="0,714" points="909,333,9 919,333,9"/>
<polyline fill="none" stroke="#333333" stroke-width="0,714" points="909,326,2 919,326,2"/>
<polyline fill="none" stroke="#333333" stroke-width="0,714" points="909,318,5 919,318,5"/>
<polyline fill="none" stroke="#333333" stroke-width="0,714" points="909,310,8 919,310,8"/>
<polyline fill="none" stroke="#333333" stroke-width="0,714" points="909,303,1 919,303,1"/>
<polyline fill="none" stroke="#333333" stroke-width="0,714" points="909,295,4 919,295,4"/>
<polyline fill="none" stroke="#333333" stroke-width="0,714" points="909,287,7 919,287,7"/>
<polyline fill="none" stroke="#333333" stroke-width="0,714" points="909,280 919,280"/>
<polyline fill="none" stroke="#333333" stroke-width="0,714" points="909,272,3 919,272,3"/>
<polyline fill="none" stroke="#333333" stroke-width="0,714" points="909,264,6 919,264,6"/>
<polyline fill="none" stroke="#333333" stroke-width="0,714" points="909,256,9 919,256,9"/>
<polyline fill="none" stroke="#333333" stroke-width="0,714" points="909,249,2 919,249,2"/>
<polyline fill="none" stroke="#333333" stroke-width="0,714" points="909,241,5 919,241,5"/>
<polyline fill="none" stroke="#333333" stroke-width="0,714" points="909,233,8 919,233,8"/>
<polyline fill="none" stroke="#333333" stroke-width="0,714" points="909,226,1 919,226,1"/>
<polyline fill="none" stroke="#333333" stroke-width="0,714" points="909,218,4 919,218,4"/>
<polyline fill="none" stroke="#333333" stroke-width="0,714" points="909,210,7 919,210,7"/>
<polyline fill="none" stroke="#333333" stroke-width="0,714" points="909,203 919,203"/>
<polyline fill="none" stroke="#333333" stroke-width="0,714" points="909,195,3 919,195,3"/>
<polyline fill="none" stroke="#333333" stroke-width="0,714" points="909,187,6 919,187,6"/>
<polyline fill="none" stroke="#333333" stroke-width="0,714" points="909,179,9 919,179,9"/>
<polyline fill="none" stroke="#333333" stroke-width="0,714" points="909,172,2 919,172,2"/>
<polyline fill="none" stroke="#333333" stroke-width="0,714" points="909,164,5 919,164,5"/>
<polyline fill="none" stroke="#333333" stroke-width="0,714" points="909,156,8 919,156,8"/>
<polyline fill="none" stroke="#333333" stroke-width="0,714" points="909,149,1 919,149,1"/>
<polyline fill="none" stroke="#333333" stroke-width="0,714" points="909,141,4 919,141,4"/>
<polyline fill="none" stroke="#333333" stroke-width="0,714" points="909,133,7 919,133,7"/>
<polyline fill="none" stroke="#333333" stroke-width="0,714" points="909,126 919,126"/>
<polyline fill="none" stroke="#333333" stroke-width="0,714" points="903,357 919,357"/>
<polyline fill="none" stroke="#333333" stroke-width="0,714" points="903,280 919,280"/>
<polyline fill="none" stroke="#333333" stroke-width="0,714" points="903,203 919,203"/>
</g>
</svg>
